<?xml version="1.0" standalone="no"?>
<!DOCTYPE svg PUBLIC "-//W3C//DTD SVG 20010904//EN"
 "http://www.w3.org/TR/2001/REC-SVG-20010904/DTD/svg10.dtd">
<svg version="1.0" xmlns="http://www.w3.org/2000/svg"
 width="16.000000pt" height="16.000000pt" viewBox="0 0 16.000000 16.000000"
 preserveAspectRatio="xMidYMid meet">
<metadata>
Created by potrace 1.11, written by Peter Selinger 2001-2013
</metadata>
<g transform="translate(0.000000,16.000000) scale(0.002286,-0.002286)"
fill="#000000" stroke="none">
<path d="M4975 5703 c-174 -6 -356 -38 -524 -93 -162 -53 -386 -164 -514 -256
-26 -19 -51 -34 -55 -34 -4 0 -41 35 -82 78 -116 120 -272 205 -460 251 -112
27 -144 30 -345 37 -245 9 -462 -22 -735 -107 -116 -36 -300 -108 -300 -119 0
-4 37 -17 83 -29 45 -12 136 -43 202 -68 l120 -46 175 -7 c146 -7 190 -12 265
-35 119 -35 217 -86 307 -161 67 -55 178 -185 178 -208 0 -5 -35 25 -77 66
-92 91 -137 128 -152 128 -7 0 -11 -43 -11 -133 l0 -134 46 -59 c74 -94 124
-171 124 -190 0 -10 -27 22 -61 72 -33 49 -69 98 -81 109 l-20 20 7 -45 c3
-25 13 -81 22 -125 14 -76 18 -83 77 -146 79 -84 159 -200 209 -301 l39 -80
-17 -161 c-9 -89 -19 -165 -22 -169 -2 -5 -53 -8 -113 -8 -215 0 -599 -41
-835 -90 -366 -75 -725 -212 -964 -367 -282 -183 -496 -437 -570 -676 -56
-183 -85 -488 -62 -661 51 -378 293 -667 648 -772 109 -32 323 -44 436 -25
207 36 405 132 618 302 122 97 319 304 429 451 l94 127 26 -47 c86 -157 197
-298 370 -473 172 -173 257 -226 455 -286 236 -71 557 -101 772 -73 504 67
975 350 1334 800 42 52 89 115 106 140 63 95 80 183 43 220 -50 50 -136 10
-286 -131 -132 -123 -260 -223 -372 -292 l-84 -52 5 -52 c4 -37 2 -53 -6 -52
-7 0 -48 6 -92 13 -76 13 -84 12 -163 -10 -197 -57 -415 -68 -582 -31 -583
132 -1006 778 -1032 1577 l-3 94 235 27 c995 113 1636 311 2042 631 148 117
224 224 284 400 54 159 73 379 45 528 -45 238 -226 465 -472 590 -76 39 -242
96 -336 115 -86 18 -260 31 -368 28z m449 -235 c-15 -101 -48 -251 -80 -361
l-34 -118 26 -82 c24 -71 27 -99 28 -212 1 -112 -2 -140 -23 -204 -129 -395
-679 -640 -1641 -735 -74 -7 -136 -13 -137 -12 -9 7 52 345 83 454 106 381
254 663 450 857 167 165 344 250 579 279 81 10 147 24 203 45 99 37 325 97
437 115 123 21 116 23 109 -26z m-2080 -2125 c-92 -686 -589 -1384 -1108
-1558 -101 -34 -227 -43 -314 -22 -52 12 -71 12 -105 2 -23 -7 -68 -16 -100
-19 l-59 -8 7 55 c4 30 10 69 14 88 6 26 2 45 -14 79 -55 113 -76 215 -76 376
0 202 40 342 143 495 166 249 480 409 966 493 169 30 405 53 554 55 l97 1 -5
-37z"/>
<path d="M1684 1822 l-10 -69 81 14 c44 7 82 13 84 13 3 0 -15 13 -40 29 -24
15 -55 40 -68 55 -14 14 -28 26 -31 26 -4 0 -11 -31 -16 -68z"/>
<path d="M1815 5392 c-110 -58 -110 -58 -107 -92 3 -36 62 -263 82 -315 l12
-30 25 50 c73 144 227 246 431 288 41 9 76 18 79 20 10 10 -369 138 -405 137
-4 0 -56 -26 -117 -58z"/>
<path d="M1585 5257 c-230 -159 -406 -396 -450 -606 -60 -288 73 -528 332
-595 77 -20 228 -20 311 -1 62 15 212 72 212 81 0 3 -22 40 -50 83 -140 218
-197 450 -157 638 16 72 16 73 -12 155 -15 46 -41 134 -56 196 -16 61 -31 112
-34 112 -3 -1 -46 -29 -96 -63z"/>
</g>
</svg>
