<?xml version="1.0" standalone="no"?>
<!DOCTYPE svg PUBLIC "-//W3C//DTD SVG 20010904//EN"
 "http://www.w3.org/TR/2001/REC-SVG-20010904/DTD/svg10.dtd">
<svg version="1.0" xmlns="http://www.w3.org/2000/svg"
 width="700.000000pt" height="700.000000pt" viewBox="0 0 700.000000 700.000000"
 preserveAspectRatio="xMidYMid meet">
<metadata>
Created by potrace 1.11, written by Peter Selinger 2001-2013
</metadata>
<g transform="translate(0.000000,700.000000) scale(0.100000,-0.100000)"
fill="#000000" stroke="none">
<path d="M4960 5703 c-344 -13 -672 -121 -984 -323 l-96 -62 -66 71 c-127 137
-304 229 -529 274 -86 18 -61 16 -295 23 -262 8 -444 -18 -735 -107 -115 -36
-298 -108 -303 -121 -2 -4 -11 -8 -19 -8 -9 0 -65 -26 -124 -57 -84 -44 -109
-62 -109 -78 0 -16 -2 -17 -10 -5 -7 12 -21 6 -78 -33 -306 -209 -492 -493
-492 -751 0 -238 123 -407 343 -471 74 -21 244 -22 326 0 51 13 187 68 200 80
2 2 -20 41 -49 86 -134 209 -191 426 -160 609 8 41 13 87 13 103 0 15 2 25 5
23 2 -3 17 21 33 53 63 126 207 227 389 271 47 12 96 24 110 28 14 4 104 4
200 1 207 -8 287 -26 430 -97 82 -41 95 -51 98 -74 2 -16 2 -28 -1 -28 -2 0
-41 25 -87 55 -46 30 -85 53 -87 52 -2 -2 -12 -44 -23 -93 l-20 -89 80 -75
c43 -41 94 -93 112 -115 17 -22 -17 9 -77 68 -93 92 -110 105 -116 89 -4 -11
-10 -71 -14 -133 -8 -125 5 -282 32 -398 l17 -73 111 -93 c157 -133 305 -291
375 -401 24 -39 26 -48 19 -95 -5 -28 -10 -54 -13 -56 -3 -3 -47 15 -98 40
-51 25 -131 59 -177 76 -325 118 -660 95 -993 -69 -111 -55 -283 -169 -271
-180 4 -5 34 -26 67 -49 56 -39 58 -41 35 -50 -298 -115 -510 -235 -676 -384
-138 -123 -253 -271 -319 -411 -107 -225 -145 -650 -81 -897 82 -314 309 -550
622 -645 83 -25 104 -28 270 -28 158 -1 190 2 265 22 162 44 332 135 507 271
152 118 379 361 497 534 l39 57 35 -62 c85 -155 188 -285 362 -459 179 -180
258 -229 466 -289 232 -68 548 -97 761 -70 114 14 296 58 397 96 194 73 428
213 607 362 182 153 412 420 474 549 30 65 33 132 7 156 -51 46 -140 5 -288
-133 -60 -56 -145 -130 -190 -165 -99 -79 -287 -196 -363 -227 -56 -22 -56
-23 -26 -30 23 -5 20 -6 -12 -3 -28 3 -68 -3 -120 -20 -321 -101 -663 -58
-932 119 -391 257 -646 777 -680 1385 -4 69 -6 128 -4 130 2 3 113 17 246 32
544 62 983 150 1327 267 94 32 307 120 385 159 148 75 352 219 432 306 160
173 253 491 223 757 -57 501 -546 828 -1200 803z m465 -210 c-2 -10 -11 -65
-20 -122 -9 -58 -35 -168 -57 -245 l-40 -141 21 -60 c27 -80 41 -164 41 -244
-1 -422 -394 -709 -1170 -855 -157 -29 -405 -62 -541 -72 l-96 -7 13 89 c78
576 315 1077 616 1304 94 72 233 142 325 165 69 18 293 46 305 39 4 -3 20 -7
35 -9 154 -22 324 -134 408 -268 17 -26 33 -47 36 -47 14 0 89 300 104 418 8
61 13 60 -116 37 -105 -18 -257 -57 -373 -96 -49 -16 -91 -28 -93 -25 -13 13
322 108 482 137 127 22 124 22 120 2z m-3718 -235 c-3 -8 -6 -5 -6 6 -1 11 2
17 5 13 3 -3 4 -12 1 -19z m1036 -1545 c-7 -2 -19 -2 -25 0 -7 3 -2 5 12 5 14
0 19 -2 13 -5z m-83 -9 c-8 -1 -62 -10 -120 -19 -58 -9 -156 -30 -219 -46 -63
-16 -116 -27 -118 -25 -8 8 239 68 367 89 29 5 112 6 90 1z m679 -383 c-29
-206 -117 -473 -225 -680 -262 -502 -684 -862 -1040 -888 -325 -23 -498 203
-481 629 4 104 11 153 31 223 48 162 146 304 286 416 172 139 537 276 750 284
72 2 105 8 135 23 31 17 78 24 215 35 96 8 211 15 256 16 l81 1 -8 -59z
m-1652 -1443 c-3 -8 -6 -5 -6 6 -1 11 2 17 5 13 3 -3 4 -12 1 -19z m-10 -65
c-3 -10 -5 -4 -5 12 0 17 2 24 5 18 2 -7 2 -21 0 -30z m3740 -30 c-3 -10 -5
-2 -5 17 0 19 2 27 5 18 2 -10 2 -26 0 -35z m-3733 -35 c7 -5 4 -8 -6 -8 -12
0 -18 7 -17 23 0 15 2 17 6 7 3 -8 11 -18 17 -22z m133 16 c-3 -3 -12 -4 -19
-1 -8 3 -5 6 6 6 11 1 17 -2 13 -5z m-64 -11 c-7 -2 -19 -2 -25 0 -7 3 -2 5
12 5 14 0 19 -2 13 -5z m3625 0 c-10 -2 -26 -2 -35 0 -10 3 -2 5 17 5 19 0 27
-2 18 -5z m52 -3 c0 -5 -8 -10 -17 -10 -15 0 -16 2 -3 10 19 12 20 12 20 0z"/>
<path d="M2899 4338 c40 -102 49 -115 102 -145 81 -46 170 -114 262 -201 79
-74 80 -75 37 -22 -95 118 -376 390 -403 390 -4 0 -3 -10 2 -22z"/>
</g>
</svg>
