<?xml version="1.0" encoding="utf-8"?>
<!-- Generator: Adobe Illustrator 19.2.0, SVG Export Plug-In . SVG Version: 6.00 Build 0)  -->
<svg version="1.1" id="Layer_1" xmlns="http://www.w3.org/2000/svg" xmlns:xlink="http://www.w3.org/1999/xlink" x="0px" y="0px"
	 viewBox="0 0 600 600" style="enable-background:new 0 0 600 600;" xml:space="preserve">
<style type="text/css">
	.st0{fill:#331749;stroke:#331749;stroke-miterlimit:10;}
	.st1{opacity:0.6;fill:#C1272D;stroke:#F2F2F2;stroke-miterlimit:10;}
	.st2{opacity:0.6;fill:#CD5257;stroke:#F2F2F2;stroke-miterlimit:10;}
	.st3{opacity:0.6;fill:#DA7D81;stroke:#F2F2F2;stroke-miterlimit:10;}
	.st4{opacity:0.6;fill:#E6A9AB;stroke:#F2F2F2;stroke-miterlimit:10;}
	.st5{opacity:0.6;fill:#F15A24;stroke:#F2F2F2;stroke-miterlimit:10;}
	.st6{opacity:0.6;fill:#F47B50;stroke:#F2F2F2;stroke-miterlimit:10;}
	.st7{opacity:0.6;fill:#F79C7C;stroke:#F2F2F2;stroke-miterlimit:10;}
	.st8{opacity:0.6;fill:#F9BDA7;stroke:#F2F2F2;stroke-miterlimit:10;}
	.st9{opacity:0.6;fill:#F7931E;stroke:#F2F2F2;stroke-miterlimit:10;}
	.st10{opacity:0.6;fill:#F9A94B;stroke:#F2F2F2;stroke-miterlimit:10;}
	.st11{opacity:0.6;fill:#FABE78;stroke:#F2F2F2;stroke-miterlimit:10;}
	.st12{opacity:0.6;fill:#FCD4A5;stroke:#F2F2F2;stroke-miterlimit:10;}
	.st13{opacity:0.6;fill:#FBB03B;stroke:#F2F2F2;stroke-miterlimit:10;}
	.st14{opacity:0.6;fill:#FCC062;stroke:#F2F2F2;stroke-miterlimit:10;}
	.st15{opacity:0.6;fill:#FDD089;stroke:#F2F2F2;stroke-miterlimit:10;}
	.st16{opacity:0.6;fill:#FDDFB1;stroke:#F2F2F2;stroke-miterlimit:10;}
	.st17{opacity:0.6;fill:#C1272D;}
	.st18{opacity:0.6;fill:#CD5257;}
	.st19{opacity:0.6;fill:#DA7D81;}
	.st20{opacity:0.6;fill:#E6A9AB;}
	.st21{opacity:0.6;fill:#F15A24;}
	.st22{opacity:0.6;fill:#F47B50;}
	.st23{opacity:0.6;fill:#F79C7C;}
	.st24{opacity:0.6;fill:#F9BDA7;}
	.st25{opacity:0.6;fill:#F7931E;}
	.st26{opacity:0.6;fill:#F9A94B;}
	.st27{opacity:0.6;fill:#FABE78;}
	.st28{opacity:0.6;fill:#FCD4A5;}
	.st29{opacity:0.6;fill:#FBB03B;}
	.st30{opacity:0.6;fill:#FCC062;}
	.st31{opacity:0.6;fill:#FDD089;}
	.st32{opacity:0.6;fill:#FDDFB1;}
	.st33{fill:#331749;}
	.st34{fill:#FFFFFF;stroke:#FFFFFF;stroke-miterlimit:10;}
	.st35{fill:#FFFFFF;}
	.st36{fill:#B3B3B3;}
	.st37{fill:url(#SVGID_1_);}
	.st38{fill:#808080;}
	.st39{fill:url(#SVGID_2_);}
</style>
<g>
	<path class="st0" d="M527.5,401c-3.4-2.9-10.6-0.2-17.7,6c0,0,0,0,0,0c0,0-0.1,0.1-0.1,0.1c-1.6,1.4-3.1,2.9-4.6,4.6
		c-15.1,14.8-30.1,25.7-44.9,32.7c-7.8,3.7-15.4,6.4-23,8.3l0,0c0,0-0.1,0.1-0.1,0.1c-8.3,2.1-16.5,3.1-24.7,3.1
		c-15.4,0-29.7-3.6-43-10.9c-8.2-4.4-15.7-10-22.5-16.6c-4.3-4.2-8.4-8.8-12.2-13.9c-9.8-13-17.6-28.7-23.2-47
		c-5.4-17.7-8.2-37.1-8.4-58.3c15.3-1.3,30.1-3,44.3-5c15.4-2.1,30.2-4.7,44.4-7.6c27.4-5.6,51.2-13,71.4-22.2
		c20.2-9.2,36.1-19.5,47.6-32.6c11.5-13.1,17.2-36.2,17.2-53.8c0-12.1-2.6-22.9-7.8-32.4c-5.2-9.5-12.1-17.5-20.9-24
		c-8.7-6.5-18.9-11.4-30.5-14.9c-11.6-3.5-23.8-5.2-36.5-5.2c-19.4,0-37.5,3-54.3,9.1c-16.6,6-31.9,14.2-45.8,24.6
		c-1.1-1.5-2.3-2.9-3.5-4.3c-8-9.2-18.4-16.2-31.3-21.1c-12.8-4.8-28.3-7.2-46.4-7.2c-9.8,0-20.5,1.1-31.9,3.2
		c-11.5,2.2-22.9,5.3-34.3,9.3c-11.4,4.1-22.4,9-33.1,14.9c-10.7,5.9-20.1,12.5-28.2,19.9c-8.1,7.4-14.6,15.6-19.5,24.6
		c-4.9,9-7.4,18.5-7.4,28.7c0,6.2,1.1,11.8,3.2,16.8c2.2,5,5.1,9.2,8.8,12.7s8.1,6.1,13.2,7.9c5.1,1.8,10.6,2.7,16.4,2.7
		c8.8,0,17.4-1.9,26.1-5.6c1-0.3,2.1-0.8,3.2-1.3c0.9-0.5,1.8-1,2.5-1.4l-2.1-3.4c-5.3-7.4-9.4-15-12.2-22.8
		c-3-8.4-4.5-16.7-4.5-24.9c0-7.1,1.2-13.6,3.5-19.8c2.3-6.1,6.1-11.4,11.4-15.9c5.3-4.5,12.1-8,20.6-10.6c8.4-2.6,18.8-3.9,31-3.9
		c9.1,0,18.3,1.6,27.4,4.6c9.1,3.1,17.3,7.8,24.5,14.2c7.2,6.4,13.1,14.6,17.6,24.5c0.5,1.1,1,2.2,1.4,3.4c3.5,9.2,5.3,19.9,5.3,32
		c0,12.2-0.4,23.5-1.2,33.6c-0.8,10.2-1.8,12.2-3,23c-14.6,0-28.9,0.7-43,2.1c-4.1,0.4-8.2,0.9-12.3,1.4
		c-18.1,2.3-35.2,5.9-51.4,10.6c-16.2,4.7-31.2,10.7-45,17.8c-13.8,7.1-25.6,15.6-35.6,25.5c-9.9,9.8-18,20.8-23.3,33.3
		c-5.7,13.5-8.7,37.7-8.4,49.9c0.3,11.7,1.9,22.5,5.8,32.5c3.9,9.9,9.3,18.5,16.3,25.7c7,7.2,15.4,12.9,25.2,17.1
		c9.8,4.1,20.7,6.2,32.6,6.2c14.5,0,28.3-3.5,41.5-10.5c13.2-7,25.6-16.1,37.2-27.4c11.6-11.3,22.3-24.1,32-38.5
		c0.2-0.3,0.3-0.5,0.5-0.8c5.6,10.9,12.1,20.8,19.7,29.7c9.1,10.8,16.7,19.5,27.8,27.9c6.3,4.8,10.8,7.3,20.2,10.6
		c7.9,2.8,19.4,5.6,28.3,6.7c8.2,1,16.6,2.3,25.4,2.3c12.1,0,24.4-1.6,36.8-4.8c12.4-3.2,24.7-8.1,36.7-14.8
		c12-6.6,23.6-14.9,34.7-24.9c10.5-9.4,20.4-20.4,29.6-32.9C528.6,414.5,531.5,404.4,527.5,401z M309.6,248.4
		c2.4-10.7,5.6-21.2,9.5-31.4c3.9-10.2,8.6-19.8,14.1-28.9c3.6-6,7.7-11.5,12.1-16.5c2.3-2.6,4.6-5.1,7.1-7.4
		c7.3-6.8,15.5-12.2,24.6-16.2c9.2-4,19.4-6,30.6-6c7.6,0,14.7,1.5,21.3,4.4c6.6,2.9,12.2,7,17,12.1c4.8,5.1,8.5,11.1,11.1,18
		c2.7,6.9,4,14.3,4,22.3c0,11.9-3.5,22.5-10.6,31.8c-7.1,9.2-17.3,17.2-30.7,23.8c-13.4,6.7-29.8,12.1-49.2,16.3
		c-6.8,1.5-14,2.8-21.4,4c-13.8,2.2-28.6,3.8-44.6,5C305.5,269.6,307.2,259.1,309.6,248.4z M280,345.1c-3.9,11.6-8.8,22.7-14.6,33.2
		c-4.2,7.6-8.8,14.7-13.8,21.4c-1.9,2.6-3.9,5.2-6,7.7c-7.3,8.9-15,16.5-23,22.9c-8,6.4-16.1,11.4-24.4,15c-8.3,3.6-16.3,5.4-24,5.4
		c-6.9,0-12.8-1.3-17.7-4c-4.9-2.7-9-6.3-12.1-11c-3.2-4.6-5.5-10-7-16.2c-1.5-6.1-2.2-12.5-2.2-19.3c0-11.9,2-22.3,5.9-31.4
		c4-9,9.4-16.9,16.4-23.5c7-6.6,15.3-12.2,24.9-16.7c9.6-4.5,20.1-8.1,31.4-10.9c9.4-2.3,19.2-4.1,29.5-5.3c2.1-0.3,4.2-0.5,6.3-0.7
		c12.6-1.3,25.2-2.1,38-2.4C286.4,321.6,283.9,333.5,280,345.1z"/>
</g>
<g>
	<path class="st1" d="M346.7,175.3c0,63-43,114-43,114s-43-51-43-114s43-114,43-114S346.7,112.4,346.7,175.3z"/>
	<path class="st2" d="M299.8,167.6c24.1,58.2,3.9,121.8,3.9,121.8s-59.2-30.7-83.3-88.9s-3.9-121.8-3.9-121.8
		S275.7,109.4,299.8,167.6z"/>
	<path class="st3" d="M253.5,178.3c44.5,44.5,50.2,111,50.2,111s-66.5-5.7-111-50.2s-50.2-111-50.2-111S209,133.8,253.5,178.3z"/>
	<path class="st4" d="M214.8,206c58.2,24.1,88.9,83.3,88.9,83.3s-63.6,20.2-121.8-3.9c-58.2-24.1-88.9-83.3-88.9-83.3
		S156.7,181.9,214.8,206z"/>
	<path class="st5" d="M189.7,246.4c63,0,114,43,114,43s-51,43-114,43s-114-43-114-43S126.8,246.4,189.7,246.4z"/>
	<path class="st6" d="M182,293.3c58.2-24.1,121.8-3.9,121.8-3.9s-30.7,59.2-88.9,83.3c-58.2,24.1-121.8,3.9-121.8,3.9
		S123.8,317.4,182,293.3z"/>
	<path class="st7" d="M192.7,339.6c44.5-44.5,111-50.2,111-50.2s-5.7,66.5-50.2,111s-111,50.2-111,50.2S148.2,384.1,192.7,339.6z"/>
	<path class="st8" d="M220.4,378.2c24.1-58.2,83.3-88.9,83.3-88.9s20.2,63.6-3.9,121.8c-24.1,58.2-83.3,88.9-83.3,88.9
		S196.3,436.4,220.4,378.2z"/>
	<path class="st9" d="M260.8,403.3c0-63,43-114,43-114s43,51,43,114s-43,114-43,114S260.8,466.3,260.8,403.3z"/>
	<path class="st10" d="M307.7,411.1c-24.1-58.2-3.9-121.8-3.9-121.8s59.2,30.7,83.3,88.9S391,500,391,500S331.7,469.3,307.7,411.1z"
		/>
	<path class="st11" d="M354,400.3c-44.5-44.5-50.2-111-50.2-111s66.5,5.7,111,50.2s50.2,111,50.2,111S398.5,444.9,354,400.3z"/>
	<path class="st12" d="M392.6,372.7c-58.2-24.1-88.9-83.3-88.9-83.3s63.6-20.2,121.8,3.9s88.9,83.3,88.9,83.3
		S450.8,396.8,392.6,372.7z"/>
	<path class="st13" d="M417.7,332.3c-63,0-114-43-114-43s51-43,114-43s114,43,114,43S480.7,332.3,417.7,332.3z"/>
	<path class="st14" d="M425.5,285.4c-58.2,24.1-121.8,3.9-121.8,3.9s30.7-59.2,88.9-83.3s121.8-3.9,121.8-3.9
		S483.7,261.3,425.5,285.4z"/>
	<path class="st15" d="M414.7,239.1c-44.5,44.5-111,50.2-111,50.2s5.7-66.5,50.2-111s111-50.2,111-50.2S459.3,194.6,414.7,239.1z"/>
	<path class="st16" d="M387.1,200.4c-24.1,58.2-83.3,88.9-83.3,88.9s-20.2-63.6,3.9-121.8c24.1-58.2,83.3-88.9,83.3-88.9
		S411.2,142.3,387.1,200.4z"/>
	<path class="st17" d="M331.7,215.2c0,40.9-27.9,74.1-27.9,74.1s-27.9-33.2-27.9-74.1s27.9-74.1,27.9-74.1S331.7,174.3,331.7,215.2z
		"/>
	<path class="st18" d="M301.2,210.2c15.7,37.8,2.6,79.2,2.6,79.2s-38.5-20-54.2-57.8s-2.6-79.2-2.6-79.2S285.5,172.4,301.2,210.2z"
		/>
	<path class="st19" d="M271.1,217.2c28.9,28.9,32.6,72.2,32.6,72.2s-43.2-3.7-72.2-32.6c-28.9-28.9-32.6-72.2-32.6-72.2
		S242.1,188.2,271.1,217.2z"/>
	<path class="st20" d="M246,235.2c37.8,15.7,57.8,54.2,57.8,54.2s-41.3,13.1-79.2-2.6s-57.8-54.2-57.8-54.2S208.1,219.5,246,235.2z"
		/>
	<path class="st21" d="M229.6,261.4c40.9,0,74.1,27.9,74.1,27.9s-33.2,27.9-74.1,27.9s-74.1-27.9-74.1-27.9S188.7,261.4,229.6,261.4
		z"/>
	<path class="st22" d="M224.6,291.9c37.8-15.7,79.2-2.6,79.2-2.6s-20,38.5-57.8,54.2s-79.2,2.6-79.2,2.6S186.8,307.5,224.6,291.9z"
		/>
	<path class="st23" d="M231.6,322c28.9-28.9,72.2-32.6,72.2-32.6s-3.7,43.2-32.6,72.2c-28.9,28.9-72.2,32.6-72.2,32.6
		S202.6,350.9,231.6,322z"/>
	<path class="st24" d="M249.6,347.1c15.7-37.8,54.2-57.8,54.2-57.8s13.1,41.3-2.6,79.2c-15.7,37.8-54.2,57.8-54.2,57.8
		S233.9,384.9,249.6,347.1z"/>
	<path class="st25" d="M275.8,363.4c0-40.9,27.9-74.1,27.9-74.1s27.9,33.2,27.9,74.1s-27.9,74.1-27.9,74.1S275.8,404.4,275.8,363.4z
		"/>
	<path class="st26" d="M306.3,368.5c-15.7-37.8-2.6-79.2-2.6-79.2s38.5,20,54.2,57.8s2.6,79.2,2.6,79.2S321.9,406.3,306.3,368.5z"/>
	<path class="st27" d="M336.4,361.5c-28.9-28.9-32.6-72.2-32.6-72.2s43.2,3.7,72.2,32.6c28.9,28.9,32.6,72.2,32.6,72.2
		S365.3,390.4,336.4,361.5z"/>
	<path class="st28" d="M361.5,343.5c-37.8-15.7-57.8-54.2-57.8-54.2s41.3-13.1,79.2,2.6s57.8,54.2,57.8,54.2
		S399.3,359.2,361.5,343.5z"/>
	<path class="st29" d="M377.8,317.3c-40.9,0-74.1-27.9-74.1-27.9s33.2-27.9,74.1-27.9s74.1,27.9,74.1,27.9S418.8,317.3,377.8,317.3z
		"/>
	<path class="st30" d="M382.9,286.8c-37.8,15.7-79.2,2.6-79.2,2.6s20-38.5,57.8-54.2s79.2-2.6,79.2-2.6S420.7,271.1,382.9,286.8z"/>
	<path class="st31" d="M375.9,256.7c-28.9,28.9-72.2,32.6-72.2,32.6s3.7-43.2,32.6-72.2s72.2-32.6,72.2-32.6
		S404.8,227.7,375.9,256.7z"/>
	<path class="st32" d="M357.9,231.6c-15.7,37.8-54.2,57.8-54.2,57.8s-13.1-41.3,2.6-79.2c15.7-37.8,54.2-57.8,54.2-57.8
		S373.6,193.7,357.9,231.6z"/>
</g>
<g>
	<path class="st0" d="M167.8,241.8c-5.3-7.4-9.4-15-12.2-22.8c-3-8.4-4.5-16.7-4.5-24.9c0-5.7,0.8-11,2.3-16.1
		c-4.5-6.6-7-13.7-8.1-22c-0.1-0.9-0.2-1.9-0.4-2.8c-1-2.3-2.1-4.7-3-7.1c-6.8,4.3-12.9,9-18.5,14.1c-8.1,7.4-14.6,15.6-19.5,24.6
		c-4.9,9-7.4,18.5-7.4,28.7c0,6.2,1.1,11.8,3.2,16.8c2.2,5,5.1,9.2,8.8,12.7c3.7,3.4,8.1,6.1,13.2,7.9c5.1,1.8,10.6,2.7,16.4,2.7
		c8.8,0,17.4-1.9,26.1-5.6c1-0.3,2.1-0.8,3.2-1.3c0.9-0.5,1.8-1,2.5-1.4L167.8,241.8z"/>
	<path class="st0" d="M527.5,401c-3.4-2.9-10.6-0.2-17.7,6c0,0,0,0,0,0c0,0-0.1,0.1-0.1,0.1c-1.6,1.4-3.1,2.9-4.6,4.6
		c-12.8,12.6-25.5,22.3-38.1,29.2c3.2,4,5.6,8.6,6.9,13.7c0.5,2-0.1,3.6-1.3,4.7c0.5,0.9,0.9,1.8,1.3,2.8c1.9,4.7-5.1,8.3-8.4,4.9
		c-5.7-6.1-12.2-11.3-17.7-17.5c-3.6,1.3-7.1,2.4-10.7,3.3l0,0c0,0-0.1,0.1-0.1,0.1c-8.3,2.1-16.5,3.1-24.7,3.1
		c-15.4,0-29.7-3.6-43-10.9c-8.2-4.4-15.7-10-22.5-16.6c-4.3-4.2-8.4-8.8-12.2-13.9c-9.8-13-17.6-28.7-23.2-47
		c-5.4-17.7-8.2-37.1-8.4-58.3c15.3-1.3,30.1-3,44.3-5c15.4-2.1,30.2-4.7,44.4-7.6c27.4-5.6,51.2-13,71.4-22.2
		c20.2-9.2,36.1-19.5,47.6-32.6c11.5-13.1,17.2-36.2,17.2-53.8c0-12.1-2.6-22.9-7.8-32.4c-3.6-6.6-8.1-12.5-13.4-17.6
		c-0.3,0.5-0.6,0.9-1.1,1.3c-10.3,8.8-22.3,16.2-34.9,21.8c-4.6,4.9-9.1,10.1-13.7,15.2c0,0,0,0.1,0.1,0.1c2.7,6.9,4,14.3,4,22.3
		c0,11.9-3.5,22.5-10.6,31.8c-7.1,9.2-17.3,17.2-30.7,23.8c-13.4,6.7-29.8,12.1-49.2,16.3c-6.8,1.5-14,2.8-21.4,4
		c-13.8,2.2-28.6,3.8-44.6,5c1-10.2,2.8-20.6,5.2-31.4c2.4-10.7,5.6-21.2,9.5-31.4c3.9-10.2,8.6-19.8,14.1-28.9
		c3.6-6,7.7-11.5,12.1-16.5c2.3-2.6,4.6-5.1,7.1-7.4c7.3-6.8,15.5-12.2,24.6-16.2c5.8-2.5,12-4.2,18.7-5.2c2.1-0.2,2.1-0.2,3.8-0.4
		c6-0.8,11.8-4.3,17.4-6.3c-1-2.1-0.6-4.7,2-6c12.2-6.1,25-10.1,38-11.9c0.2-0.1,0.4-0.2,0.6-0.2c2.2-0.8,4.4-1.6,6.6-2.3
		c-10.2-2.6-20.8-3.9-31.9-3.9c-19.4,0-37.5,3-54.3,9.1c-16.6,6-31.9,14.2-45.8,24.6c-1.1-1.5-2.3-2.9-3.5-4.3
		c-8-9.2-18.4-16.2-31.3-21.1c-12.8-4.8-28.3-7.2-46.4-7.2c-9.8,0-20.5,1.1-31.9,3.2c-11.5,2.2-22.9,5.3-34.3,9.3
		c-4.5,1.6-9,3.4-13.5,5.3c2.3,0.6,4.5,1.2,6.7,2c10,3.3,19.9,7.2,29.5,11.6c3.2-0.2,6.5-0.4,10.1-0.4c9.1,0,18.3,1.6,27.4,4.6
		c9.1,3.1,17.3,7.8,24.5,14.2c7.2,6.4,13.1,14.6,17.6,24.5c0.5,1.1,1,2.2,1.4,3.4c3.5,9.2,5.3,19.9,5.3,32c0,12.2-0.4,23.5-1.2,33.6
		c-0.8,10.2-1.8,12.2-3,23c-14.6,0-28.9,0.7-43,2.1c-4.1,0.4-8.2,0.9-12.3,1.4c-18.1,2.3-35.2,5.9-51.4,10.6
		c-16.2,4.7-31.2,10.7-45,17.8c-13.8,7.1-25.6,15.6-35.6,25.5c-9.9,9.8-18,20.8-23.3,33.3c-5.7,13.5-8.7,37.7-8.4,49.9
		c0.3,11.7,1.9,22.5,5.8,32.5c3.9,9.9,9.3,18.5,16.3,25.7c7,7.2,15.4,12.9,25.2,17.1c9.8,4.1,20.7,6.2,32.6,6.2
		c14.5,0,28.3-3.5,41.5-10.5c13.2-7,25.6-16.1,37.2-27.4c11.6-11.3,22.3-24.1,32-38.5c0.2-0.3,0.3-0.5,0.5-0.8
		c5.6,10.9,12.1,20.8,19.7,29.7c9.1,10.8,16.7,19.5,27.8,27.9c6.3,4.8,10.8,7.3,20.2,10.6c7.9,2.8,19.4,5.6,28.3,6.7
		c8.2,1,16.6,2.3,25.4,2.3c8.3,0,16.7-0.8,25.2-2.3c3.9-0.7,7.8-1.5,11.7-2.5c12.4-3.2,24.7-8.1,36.7-14.8
		c12-6.6,23.6-14.9,34.7-24.9c10.5-9.4,20.4-20.4,29.6-32.9C528.6,414.5,531.5,404.4,527.5,401z M280,345.1
		c-3.9,11.6-8.8,22.7-14.6,33.2c-4.2,7.6-8.8,14.7-13.8,21.4c-1.9,2.6-3.9,5.2-6,7.7c-7.3,8.9-15,16.5-23,22.9
		c-8,6.4-16.1,11.4-24.4,15c-8.3,3.6-16.3,5.4-24,5.4c-5.6,0-10.5-0.9-14.7-2.6c-2.3,1.1-4.5,2.1-6.8,3c-1.5,0.8-2.9,1.7-4.3,2.7
		c-4.5,3.3-8.3,7.5-14,8.5c-2.5,0.5-5.5-0.7-6.2-3.5c-2.1-9.8,5-20.6,13.4-27.7c-1.8-3.5-3.2-7.4-4.2-11.6
		c-1.5-6.1-2.2-12.5-2.2-19.3c0-11.9,2-22.3,5.9-31.4c4-9,9.4-16.9,16.4-23.5c7-6.6,15.3-12.2,24.9-16.7c9.6-4.5,20.1-8.1,31.4-10.9
		c9.4-2.3,19.2-4.1,29.5-5.3c2.1-0.3,4.2-0.5,6.3-0.7c12.6-1.3,25.2-2.1,38-2.4C286.4,321.6,283.9,333.5,280,345.1z"/>
</g>
</svg>
