<?xml version="1.0" encoding="utf-8"?>
<!-- Generator: Adobe Illustrator 20.1.0, SVG Export Plug-In . SVG Version: 6.00 Build 0)  -->
<svg version="1.1" id="Layer_1" xmlns="http://www.w3.org/2000/svg" xmlns:xlink="http://www.w3.org/1999/xlink" x="0px" y="0px"
	 viewBox="0 0 464.7 456" style="enable-background:new 0 0 464.7 456;" xml:space="preserve">
<style type="text/css">
	.st0{fill:#331749;stroke:#331749;stroke-miterlimit:10;}
	.st1{opacity:0.6;fill:#C1272D;stroke:#F2F2F2;stroke-miterlimit:10;enable-background:new    ;}
	.st2{opacity:0.6;fill:#CD5257;stroke:#F2F2F2;stroke-miterlimit:10;enable-background:new    ;}
	.st3{opacity:0.6;fill:#DA7D81;stroke:#F2F2F2;stroke-miterlimit:10;enable-background:new    ;}
	.st4{opacity:0.6;fill:#E6A9AB;stroke:#F2F2F2;stroke-miterlimit:10;enable-background:new    ;}
	.st5{opacity:0.6;fill:#F15A24;stroke:#F2F2F2;stroke-miterlimit:10;enable-background:new    ;}
	.st6{opacity:0.6;fill:#F47B50;stroke:#F2F2F2;stroke-miterlimit:10;enable-background:new    ;}
	.st7{opacity:0.6;fill:#F79C7C;stroke:#F2F2F2;stroke-miterlimit:10;enable-background:new    ;}
	.st8{opacity:0.6;fill:#F9BDA7;stroke:#F2F2F2;stroke-miterlimit:10;enable-background:new    ;}
	.st9{opacity:0.6;fill:#F7931E;stroke:#F2F2F2;stroke-miterlimit:10;enable-background:new    ;}
	.st10{opacity:0.6;fill:#F9A94B;stroke:#F2F2F2;stroke-miterlimit:10;enable-background:new    ;}
	.st11{opacity:0.6;fill:#FABE78;stroke:#F2F2F2;stroke-miterlimit:10;enable-background:new    ;}
	.st12{opacity:0.6;fill:#FCD4A5;stroke:#F2F2F2;stroke-miterlimit:10;enable-background:new    ;}
	.st13{opacity:0.6;fill:#FBB03B;stroke:#F2F2F2;stroke-miterlimit:10;enable-background:new    ;}
	.st14{opacity:0.6;fill:#FCC062;stroke:#F2F2F2;stroke-miterlimit:10;enable-background:new    ;}
	.st15{opacity:0.6;fill:#FDD089;stroke:#F2F2F2;stroke-miterlimit:10;enable-background:new    ;}
	.st16{opacity:0.6;fill:#FDDFB1;stroke:#F2F2F2;stroke-miterlimit:10;enable-background:new    ;}
	.st17{opacity:0.6;fill:#C1272D;enable-background:new    ;}
	.st18{opacity:0.6;fill:#CD5257;enable-background:new    ;}
	.st19{opacity:0.6;fill:#DA7D81;enable-background:new    ;}
	.st20{opacity:0.6;fill:#E6A9AB;enable-background:new    ;}
	.st21{opacity:0.6;fill:#F15A24;enable-background:new    ;}
	.st22{opacity:0.6;fill:#F47B50;enable-background:new    ;}
	.st23{opacity:0.6;fill:#F79C7C;enable-background:new    ;}
	.st24{opacity:0.6;fill:#F9BDA7;enable-background:new    ;}
	.st25{opacity:0.6;fill:#F7931E;enable-background:new    ;}
	.st26{opacity:0.6;fill:#F9A94B;enable-background:new    ;}
	.st27{opacity:0.6;fill:#FABE78;enable-background:new    ;}
	.st28{opacity:0.6;fill:#FCD4A5;enable-background:new    ;}
	.st29{opacity:0.6;fill:#FBB03B;enable-background:new    ;}
	.st30{opacity:0.6;fill:#FCC062;enable-background:new    ;}
	.st31{opacity:0.6;fill:#FDD089;enable-background:new    ;}
	.st32{opacity:0.6;fill:#FDDFB1;enable-background:new    ;}
</style>
<g>
	<path class="st0" d="M460.5,339.7c-3.4-2.9-10.6-0.2-17.7,6l0,0l-0.1,0.1c-1.6,1.4-3.1,2.9-4.6,4.6c-15.1,14.8-30.1,25.7-44.9,32.7
		c-7.8,3.7-15.4,6.4-23,8.3l0,0l-0.1,0.1c-8.3,2.1-16.5,3.1-24.7,3.1c-15.4,0-29.7-3.6-43-10.9c-8.2-4.4-15.7-10-22.5-16.6
		c-4.3-4.2-8.4-8.8-12.2-13.9c-9.8-13-17.6-28.7-23.2-47c-5.4-17.7-8.2-37.1-8.4-58.3c15.3-1.3,30.1-3,44.3-5
		c15.4-2.1,30.2-4.7,44.4-7.6c27.4-5.6,51.2-13,71.4-22.2c20.2-9.2,36.1-19.5,47.6-32.6s17.2-36.2,17.2-53.8
		c0-12.1-2.6-22.9-7.8-32.4c-5.2-9.5-12.1-17.5-20.9-24c-8.7-6.5-18.9-11.4-30.5-14.9s-23.8-5.2-36.5-5.2c-19.4,0-37.5,3-54.3,9.1
		c-16.6,6-31.9,14.2-45.8,24.6c-1.1-1.5-2.3-2.9-3.5-4.3c-8-9.2-18.4-16.2-31.3-21.1c-12.8-4.8-28.3-7.2-46.4-7.2
		c-9.8,0-20.5,1.1-31.9,3.2c-11.5,2.2-22.9,5.3-34.3,9.3c-11.4,4.1-22.4,9-33.1,14.9C74,84.6,64.6,91.2,56.5,98.6
		S41.9,114.2,37,123.2s-7.4,18.5-7.4,28.7c0,6.2,1.1,11.8,3.2,16.8c2.2,5,5.1,9.2,8.8,12.7s8.1,6.1,13.2,7.9
		c5.1,1.8,10.6,2.7,16.4,2.7c8.8,0,17.4-1.9,26.1-5.6c1-0.3,2.1-0.8,3.2-1.3c0.9-0.5,1.8-1,2.5-1.4l-2.1-3.4
		c-5.3-7.4-9.4-15-12.2-22.8c-3-8.4-4.5-16.7-4.5-24.9c0-7.1,1.2-13.6,3.5-19.8c2.3-6.1,6.1-11.4,11.4-15.9
		c5.3-4.5,12.1-8,20.6-10.6c8.4-2.6,18.8-3.9,31-3.9c9.1,0,18.3,1.6,27.4,4.6c9.1,3.1,17.3,7.8,24.5,14.2s13.1,14.6,17.6,24.5
		c0.5,1.1,1,2.2,1.4,3.4c3.5,9.2,5.3,19.9,5.3,32c0,12.2-0.4,23.5-1.2,33.6c-0.8,10.2-1.8,12.2-3,23c-14.6,0-28.9,0.7-43,2.1
		c-4.1,0.4-8.2,0.9-12.3,1.4c-18.1,2.3-35.2,5.9-51.4,10.6s-31.2,10.7-45,17.8c-13.8,7.1-25.6,15.6-35.6,25.5
		c-9.9,9.8-18,20.8-23.3,33.3c-5.7,13.5-8.7,37.7-8.4,49.9C4,370,5.6,380.8,9.5,390.8c3.9,9.9,9.3,18.5,16.3,25.7
		c7,7.2,15.4,12.9,25.2,17.1c9.8,4.1,20.7,6.2,32.6,6.2c14.5,0,28.3-3.5,41.5-10.5s25.6-16.1,37.2-27.4c11.6-11.3,22.3-24.1,32-38.5
		c0.2-0.3,0.3-0.5,0.5-0.8c5.6,10.9,12.1,20.8,19.7,29.7c9.1,10.8,16.7,19.5,27.8,27.9c6.3,4.8,10.8,7.3,20.2,10.6
		c7.9,2.8,19.4,5.6,28.3,6.7c8.2,1,16.6,2.3,25.4,2.3c12.1,0,24.4-1.6,36.8-4.8c12.4-3.2,24.7-8.1,36.7-14.8
		c12-6.6,23.6-14.9,34.7-24.9c10.5-9.4,20.4-20.4,29.6-32.9C461.6,353.2,464.5,343.1,460.5,339.7z M242.6,187.1
		c2.4-10.7,5.6-21.2,9.5-31.4s8.6-19.8,14.1-28.9c3.6-6,7.7-11.5,12.1-16.5c2.3-2.6,4.6-5.1,7.1-7.4c7.3-6.8,15.5-12.2,24.6-16.2
		c9.2-4,19.4-6,30.6-6c7.6,0,14.7,1.5,21.3,4.4c6.6,2.9,12.2,7,17,12.1s8.5,11.1,11.1,18c2.7,6.9,4,14.3,4,22.3
		c0,11.9-3.5,22.5-10.6,31.8c-7.1,9.2-17.3,17.2-30.7,23.8c-13.4,6.7-29.8,12.1-49.2,16.3c-6.8,1.5-14,2.8-21.4,4
		c-13.8,2.2-28.6,3.8-44.6,5C238.5,208.3,240.2,197.8,242.6,187.1z M213,283.8c-3.9,11.6-8.8,22.7-14.6,33.2
		c-4.2,7.6-8.8,14.7-13.8,21.4c-1.9,2.6-3.9,5.2-6,7.7c-7.3,8.9-15,16.5-23,22.9s-16.1,11.4-24.4,15c-8.3,3.6-16.3,5.4-24,5.4
		c-6.9,0-12.8-1.3-17.7-4s-9-6.3-12.1-11c-3.2-4.6-5.5-10-7-16.2c-1.5-6.1-2.2-12.5-2.2-19.3c0-11.9,2-22.3,5.9-31.4
		c4-9,9.4-16.9,16.4-23.5s15.3-12.2,24.9-16.7c9.6-4.5,20.1-8.1,31.4-10.9c9.4-2.3,19.2-4.1,29.5-5.3c2.1-0.3,4.2-0.5,6.3-0.7
		c12.6-1.3,25.2-2.1,38-2.4C219.4,260.3,216.9,272.2,213,283.8z"/>
</g>
<g>
	<path class="st1" d="M279.7,114c0,63-43,114-43,114s-43-51-43-114s43-114,43-114S279.7,51.1,279.7,114z"/>
	<path class="st2" d="M232.8,106.3c24.1,58.2,3.9,121.8,3.9,121.8s-59.2-30.7-83.3-88.9s-3.9-121.8-3.9-121.8
		S208.7,48.1,232.8,106.3z"/>
	<path class="st3" d="M186.5,117c44.5,44.5,50.2,111,50.2,111s-66.5-5.7-111-50.2s-50.2-111-50.2-111S142,72.5,186.5,117z"/>
	<path class="st4" d="M147.8,144.7c58.2,24.1,88.9,83.3,88.9,83.3s-63.6,20.2-121.8-3.9S26,140.8,26,140.8S89.7,120.6,147.8,144.7z"
		/>
	<path class="st5" d="M122.7,185.1c63,0,114,43,114,43s-51,43-114,43s-114-43-114-43S59.8,185.1,122.7,185.1z"/>
	<path class="st6" d="M115,232c58.2-24.1,121.8-3.9,121.8-3.9s-30.7,59.2-88.9,83.3s-121.8,3.9-121.8,3.9S56.8,256.1,115,232z"/>
	<path class="st7" d="M125.7,278.3c44.5-44.5,111-50.2,111-50.2s-5.7,66.5-50.2,111s-111,50.2-111,50.2S81.2,322.8,125.7,278.3z"/>
	<path class="st8" d="M153.4,316.9c24.1-58.2,83.3-88.9,83.3-88.9s20.2,63.6-3.9,121.8s-83.3,88.9-83.3,88.9
		S129.3,375.1,153.4,316.9z"/>
	<path class="st9" d="M193.8,342c0-63,43-114,43-114s43,51,43,114s-43,114-43,114S193.8,405,193.8,342z"/>
	<path class="st10" d="M240.7,349.8c-24.1-58.2-3.9-121.8-3.9-121.8s59.2,30.7,83.3,88.9s3.9,121.8,3.9,121.8S264.7,408,240.7,349.8
		z"/>
	<path class="st11" d="M287,339c-44.5-44.5-50.2-111-50.2-111s66.5,5.7,111,50.2s50.2,111,50.2,111S331.5,383.6,287,339z"/>
	<path class="st12" d="M325.6,311.4c-58.2-24.1-88.9-83.3-88.9-83.3s63.6-20.2,121.8,3.9s88.9,83.3,88.9,83.3
		S383.8,335.5,325.6,311.4z"/>
	<path class="st13" d="M350.7,271c-63,0-114-43-114-43s51-43,114-43s114,43,114,43S413.7,271,350.7,271z"/>
	<path class="st14" d="M358.5,224.1c-58.2,24.1-121.8,3.9-121.8,3.9s30.7-59.2,88.9-83.3s121.8-3.9,121.8-3.9S416.7,200,358.5,224.1
		z"/>
	<path class="st15" d="M347.7,177.8c-44.5,44.5-111,50.2-111,50.2s5.7-66.5,50.2-111s111-50.2,111-50.2S392.3,133.3,347.7,177.8z"/>
	<path class="st16" d="M320.1,139.1C296,197.3,236.8,228,236.8,228s-20.2-63.6,3.9-121.8S324,17.3,324,17.3S344.2,81,320.1,139.1z"
		/>
	<path class="st17" d="M264.7,153.9c0,40.9-27.9,74.1-27.9,74.1s-27.9-33.2-27.9-74.1s27.9-74.1,27.9-74.1S264.7,113,264.7,153.9z"
		/>
	<path class="st18" d="M234.2,148.9c15.7,37.8,2.6,79.2,2.6,79.2s-38.5-20-54.2-57.8S180,91.1,180,91.1S218.5,111.1,234.2,148.9z"/>
	<path class="st19" d="M204.1,155.9c28.9,28.9,32.6,72.2,32.6,72.2s-43.2-3.7-72.2-32.6c-28.9-28.9-32.6-72.2-32.6-72.2
		S175.1,126.9,204.1,155.9z"/>
	<path class="st20" d="M179,173.9c37.8,15.7,57.8,54.2,57.8,54.2s-41.3,13.1-79.2-2.6s-57.8-54.2-57.8-54.2S141.1,158.2,179,173.9z"
		/>
	<path class="st21" d="M162.6,200.1c40.9,0,74.1,27.9,74.1,27.9s-33.2,27.9-74.1,27.9S88.5,228,88.5,228S121.7,200.1,162.6,200.1z"
		/>
	<path class="st22" d="M157.6,230.6c37.8-15.7,79.2-2.6,79.2-2.6s-20,38.5-57.8,54.2s-79.2,2.6-79.2,2.6S119.8,246.2,157.6,230.6z"
		/>
	<path class="st23" d="M164.6,260.7c28.9-28.9,72.2-32.6,72.2-32.6s-3.7,43.2-32.6,72.2c-28.9,28.9-72.2,32.6-72.2,32.6
		S135.6,289.6,164.6,260.7z"/>
	<path class="st24" d="M182.6,285.8c15.7-37.8,54.2-57.8,54.2-57.8s13.1,41.3-2.6,79.2C218.5,345,180,365,180,365
		S166.9,323.6,182.6,285.8z"/>
	<path class="st25" d="M208.8,302.1c0-40.9,27.9-74.1,27.9-74.1s27.9,33.2,27.9,74.1s-27.9,74.1-27.9,74.1S208.8,343.1,208.8,302.1z
		"/>
	<path class="st26" d="M239.3,307.2c-15.7-37.8-2.6-79.2-2.6-79.2s38.5,20,54.2,57.8s2.6,79.2,2.6,79.2S254.9,345,239.3,307.2z"/>
	<path class="st27" d="M269.4,300.2c-28.9-28.9-32.6-72.2-32.6-72.2s43.2,3.7,72.2,32.6c28.9,28.9,32.6,72.2,32.6,72.2
		S298.3,329.1,269.4,300.2z"/>
	<path class="st28" d="M294.5,282.2c-37.8-15.7-57.8-54.2-57.8-54.2s41.3-13.1,79.2,2.6s57.8,54.2,57.8,54.2
		S332.3,297.9,294.5,282.2z"/>
	<path class="st29" d="M310.8,256c-40.9,0-74.1-27.9-74.1-27.9s33.2-27.9,74.1-27.9s74.1,27.9,74.1,27.9S351.8,256,310.8,256z"/>
	<path class="st30" d="M315.9,225.5c-37.8,15.7-79.2,2.6-79.2,2.6s20-38.5,57.8-54.2s79.2-2.6,79.2-2.6S353.7,209.8,315.9,225.5z"/>
	<path class="st31" d="M308.9,195.4C280,224.3,236.7,228,236.7,228s3.7-43.2,32.6-72.2s72.2-32.6,72.2-32.6S337.8,166.4,308.9,195.4
		z"/>
	<path class="st32" d="M290.9,170.3c-15.7,37.8-54.2,57.8-54.2,57.8s-13.1-41.3,2.6-79.2c15.7-37.8,54.2-57.8,54.2-57.8
		S306.6,132.4,290.9,170.3z"/>
</g>
<g>
	<path class="st0" d="M100.8,180.5c-5.3-7.4-9.4-15-12.2-22.8c-3-8.4-4.5-16.7-4.5-24.9c0-5.7,0.8-11,2.3-16.1
		c-4.5-6.6-7-13.7-8.1-22c-0.1-0.9-0.2-1.9-0.4-2.8c-1-2.3-2.1-4.7-3-7.1c-6.8,4.3-12.9,9-18.5,14.1c-8.1,7.4-14.6,15.6-19.5,24.6
		s-7.4,18.5-7.4,28.7c0,6.2,1.1,11.8,3.2,16.8c2.2,5,5.1,9.2,8.8,12.7c3.7,3.4,8.1,6.1,13.2,7.9c5.1,1.8,10.6,2.7,16.4,2.7
		c8.8,0,17.4-1.9,26.1-5.6c1-0.3,2.1-0.8,3.2-1.3c0.9-0.5,1.8-1,2.5-1.4L100.8,180.5z"/>
	<path class="st0" d="M460.5,339.7c-3.4-2.9-10.6-0.2-17.7,6l0,0l-0.1,0.1c-1.6,1.4-3.1,2.9-4.6,4.6c-12.8,12.6-25.5,22.3-38.1,29.2
		c3.2,4,5.6,8.6,6.9,13.7c0.5,2-0.1,3.6-1.3,4.7c0.5,0.9,0.9,1.8,1.3,2.8c1.9,4.7-5.1,8.3-8.4,4.9c-5.7-6.1-12.2-11.3-17.7-17.5
		c-3.6,1.3-7.1,2.4-10.7,3.3l0,0l-0.1,0.1c-8.3,2.1-16.5,3.1-24.7,3.1c-15.4,0-29.7-3.6-43-10.9c-8.2-4.4-15.7-10-22.5-16.6
		c-4.3-4.2-8.4-8.8-12.2-13.9c-9.8-13-17.6-28.7-23.2-47c-5.4-17.7-8.2-37.1-8.4-58.3c15.3-1.3,30.1-3,44.3-5
		c15.4-2.1,30.2-4.7,44.4-7.6c27.4-5.6,51.2-13,71.4-22.2c20.2-9.2,36.1-19.5,47.6-32.6s17.2-36.2,17.2-53.8
		c0-12.1-2.6-22.9-7.8-32.4c-3.6-6.6-8.1-12.5-13.4-17.6c-0.3,0.5-0.6,0.9-1.1,1.3c-10.3,8.8-22.3,16.2-34.9,21.8
		c-4.6,4.9-9.1,10.1-13.7,15.2c0,0,0,0.1,0.1,0.1c2.7,6.9,4,14.3,4,22.3c0,11.9-3.5,22.5-10.6,31.8c-7.1,9.2-17.3,17.2-30.7,23.8
		c-13.4,6.7-29.8,12.1-49.2,16.3c-6.8,1.5-14,2.8-21.4,4c-13.8,2.2-28.6,3.8-44.6,5c1-10.2,2.8-20.6,5.2-31.4
		c2.4-10.7,5.6-21.2,9.5-31.4s8.6-19.8,14.1-28.9c3.6-6,7.7-11.5,12.1-16.5c2.3-2.6,4.6-5.1,7.1-7.4c7.3-6.8,15.5-12.2,24.6-16.2
		c5.8-2.5,12-4.2,18.7-5.2c2.1-0.2,2.1-0.2,3.8-0.4c6-0.8,11.8-4.3,17.4-6.3c-1-2.1-0.6-4.7,2-6c12.2-6.1,25-10.1,38-11.9
		c0.2-0.1,0.4-0.2,0.6-0.2c2.2-0.8,4.4-1.6,6.6-2.3c-10.2-2.6-20.8-3.9-31.9-3.9c-19.4,0-37.5,3-54.3,9.1
		c-16.6,6-31.9,14.2-45.8,24.6c-1.1-1.5-2.3-2.9-3.5-4.3c-8-9.2-18.4-16.2-31.3-21.1c-12.8-4.8-28.3-7.2-46.4-7.2
		c-9.8,0-20.5,1.1-31.9,3.2c-11.5,2.2-22.9,5.3-34.3,9.3c-4.5,1.6-9,3.4-13.5,5.3c2.3,0.6,4.5,1.2,6.7,2c10,3.3,19.9,7.2,29.5,11.6
		c3.2-0.2,6.5-0.4,10.1-0.4c9.1,0,18.3,1.6,27.4,4.6c9.1,3.1,17.3,7.8,24.5,14.2s13.1,14.6,17.6,24.5c0.5,1.1,1,2.2,1.4,3.4
		c3.5,9.2,5.3,19.9,5.3,32c0,12.2-0.4,23.5-1.2,33.6c-0.8,10.2-1.8,12.2-3,23c-14.6,0-28.9,0.7-43,2.1c-4.1,0.4-8.2,0.9-12.3,1.4
		c-18.1,2.3-35.2,5.9-51.4,10.6s-31.2,10.7-45,17.8c-13.8,7.1-25.6,15.6-35.6,25.5c-9.9,9.8-18,20.8-23.3,33.3
		c-5.7,13.5-8.7,37.7-8.4,49.9c0.3,11.7,1.9,22.5,5.8,32.5c3.9,9.9,9.3,18.5,16.3,25.7c7,7.2,15.4,12.9,25.2,17.1
		c9.8,4.1,20.7,6.2,32.6,6.2c14.5,0,28.3-3.5,41.5-10.5s25.6-16.1,37.2-27.4c11.6-11.3,22.3-24.1,32-38.5c0.2-0.3,0.3-0.5,0.5-0.8
		c5.6,10.9,12.1,20.8,19.7,29.7c9.1,10.8,16.7,19.5,27.8,27.9c6.3,4.8,10.8,7.3,20.2,10.6c7.9,2.8,19.4,5.6,28.3,6.7
		c8.2,1,16.6,2.3,25.4,2.3c8.3,0,16.7-0.8,25.2-2.3c3.9-0.7,7.8-1.5,11.7-2.5c12.4-3.2,24.7-8.1,36.7-14.8
		c12-6.6,23.6-14.9,34.7-24.9c10.5-9.4,20.4-20.4,29.6-32.9C461.6,353.2,464.5,343.1,460.5,339.7z M213,283.8
		c-3.9,11.6-8.8,22.7-14.6,33.2c-4.2,7.6-8.8,14.7-13.8,21.4c-1.9,2.6-3.9,5.2-6,7.7c-7.3,8.9-15,16.5-23,22.9s-16.1,11.4-24.4,15
		c-8.3,3.6-16.3,5.4-24,5.4c-5.6,0-10.5-0.9-14.7-2.6c-2.3,1.1-4.5,2.1-6.8,3c-1.5,0.8-2.9,1.7-4.3,2.7c-4.5,3.3-8.3,7.5-14,8.5
		c-2.5,0.5-5.5-0.7-6.2-3.5c-2.1-9.8,5-20.6,13.4-27.7c-1.8-3.5-3.2-7.4-4.2-11.6c-1.5-6.1-2.2-12.5-2.2-19.3
		c0-11.9,2-22.3,5.9-31.4c4-9,9.4-16.9,16.4-23.5s15.3-12.2,24.9-16.7c9.6-4.5,20.1-8.1,31.4-10.9c9.4-2.3,19.2-4.1,29.5-5.3
		c2.1-0.3,4.2-0.5,6.3-0.7c12.6-1.3,25.2-2.1,38-2.4C219.4,260.3,216.9,272.2,213,283.8z"/>
</g>
</svg>
