<svg id="Layer_1" data-name="Layer 1" xmlns="http://www.w3.org/2000/svg" width="462.3" height="457.55" viewBox="0 0 462.3 457.55"><title>purpsmall-01</title><path d="M527.5,401c-3.4-2.9-10.6-.2-17.7,6h0l-.1.1a49.91,49.91,0,0,0-4.6,4.6q-22.65,22.2-44.9,32.7a122.86,122.86,0,0,1-23,8.3h0l-.1.1a100.11,100.11,0,0,1-24.7,3.1,87.82,87.82,0,0,1-43-10.9,100.66,100.66,0,0,1-22.5-16.6,117.77,117.77,0,0,1-12.2-13.9c-9.8-13-17.6-28.7-23.2-47q-8.1-26.55-8.4-58.3c15.3-1.3,30.1-3,44.3-5,15.4-2.1,30.2-4.7,44.4-7.6q41.1-8.4,71.4-22.2c20.2-9.2,36.1-19.5,47.6-32.6S528,205.6,528,188q0-18.15-7.8-32.4a72.94,72.94,0,0,0-20.9-24,97.45,97.45,0,0,0-30.5-14.9,125.82,125.82,0,0,0-36.5-5.2,157.9,157.9,0,0,0-54.3,9.1,175.77,175.77,0,0,0-45.8,24.6c-1.1-1.5-2.3-2.9-3.5-4.3-8-9.2-18.4-16.2-31.3-21.1s-28.3-7.2-46.4-7.2a177.59,177.59,0,0,0-31.9,3.2,239,239,0,0,0-34.3,9.3A228.08,228.08,0,0,0,151.7,140a146.14,146.14,0,0,0-28.2,19.9A94.43,94.43,0,0,0,104,184.5a59,59,0,0,0-7.4,28.7A43,43,0,0,0,99.8,230a38.5,38.5,0,0,0,8.8,12.7,36.62,36.62,0,0,0,13.2,7.9,49.07,49.07,0,0,0,16.4,2.7,65.94,65.94,0,0,0,26.1-5.6,26.92,26.92,0,0,0,3.2-1.3L170,245l-2.1-3.4a93.54,93.54,0,0,1-12.2-22.8,73.69,73.69,0,0,1-4.5-24.9,56.09,56.09,0,0,1,3.5-19.8,38.48,38.48,0,0,1,11.4-15.9c5.3-4.5,12.1-8,20.6-10.6s18.8-3.9,31-3.9a87.51,87.51,0,0,1,27.4,4.6,70.91,70.91,0,0,1,24.5,14.2A72.35,72.35,0,0,1,287.2,187a34.54,34.54,0,0,1,1.4,3.4c3.5,9.2,5.3,19.9,5.3,32s-.4,23.5-1.2,33.6-1.8,12.2-3,23c-14.6,0-28.9.7-43,2.1-4.1.4-8.2.9-12.3,1.4A336.16,336.16,0,0,0,183,293.1a251.11,251.11,0,0,0-45,17.8,143.14,143.14,0,0,0-35.6,25.5c-9.9,9.8-18,20.8-23.3,33.3-5.7,13.5-8.7,37.7-8.4,49.9.3,11.7,1.9,22.5,5.8,32.5A74.89,74.89,0,0,0,118,494.9a83.8,83.8,0,0,0,32.6,6.2,87.3,87.3,0,0,0,41.5-10.5,162.07,162.07,0,0,0,37.2-27.4,243.23,243.23,0,0,0,32-38.5c.2-.3.3-.5.5-.8a153.23,153.23,0,0,0,19.7,29.7c9.1,10.8,16.7,19.5,27.8,27.9,6.3,4.8,10.8,7.3,20.2,10.6a149.91,149.91,0,0,0,28.3,6.7c8.2,1,16.6,2.3,25.4,2.3a147,147,0,0,0,36.8-4.8,154.31,154.31,0,0,0,36.7-14.8,185.5,185.5,0,0,0,34.7-24.9A215.21,215.21,0,0,0,521,423.7C528.6,414.5,531.5,404.4,527.5,401ZM309.6,248.4a227.27,227.27,0,0,1,9.5-31.4,179.84,179.84,0,0,1,14.1-28.9,113.08,113.08,0,0,1,12.1-16.5,99.65,99.65,0,0,1,7.1-7.4A87.51,87.51,0,0,1,377,148a76,76,0,0,1,30.6-6,52.39,52.39,0,0,1,21.3,4.4,51.7,51.7,0,0,1,17,12.1,53.43,53.43,0,0,1,11.1,18,60.51,60.51,0,0,1,4,22.3,51,51,0,0,1-10.6,31.8c-7.1,9.2-17.3,17.2-30.7,23.8s-29.8,12.1-49.2,16.3c-6.8,1.5-14,2.8-21.4,4-13.8,2.2-28.6,3.8-44.6,5A261,261,0,0,1,309.6,248.4ZM280,345.1a201.34,201.34,0,0,1-14.6,33.2,186.51,186.51,0,0,1-13.8,21.4c-1.9,2.6-3.9,5.2-6,7.7a155.28,155.28,0,0,1-23,22.9,107.93,107.93,0,0,1-24.4,15,60.2,60.2,0,0,1-24,5.4c-6.9,0-12.8-1.3-17.7-4a33.63,33.63,0,0,1-12.1-11,47.65,47.65,0,0,1-7-16.2,80.39,80.39,0,0,1-2.2-19.3c0-11.9,2-22.3,5.9-31.4a72.12,72.12,0,0,1,16.4-23.5,94.4,94.4,0,0,1,24.9-16.7,170.53,170.53,0,0,1,31.4-10.9,241.3,241.3,0,0,1,29.5-5.3c2.1-.3,4.2-.5,6.3-.7,12.6-1.3,25.2-2.1,38-2.4A160.75,160.75,0,0,1,280,345.1Z" transform="translate(-70.18 -60.52)" style="fill:#331749;stroke:#331749;stroke-miterlimit:10"/><path d="M346.7,175.3c0,63-43,114-43,114s-43-51-43-114,43-114,43-114S346.7,112.4,346.7,175.3Z" transform="translate(-70.18 -60.52)" style="fill:#c1272d;stroke:#f2f2f2;stroke-miterlimit:10;opacity:0.6000000238418579;isolation:isolate"/><path d="M299.8,167.6c24.1,58.2,3.9,121.8,3.9,121.8s-59.2-30.7-83.3-88.9-3.9-121.8-3.9-121.8S275.7,109.4,299.8,167.6Z" transform="translate(-70.18 -60.52)" style="fill:#cd5257;stroke:#f2f2f2;stroke-miterlimit:10;opacity:0.6000000238418579;isolation:isolate"/><path d="M253.5,178.3c44.5,44.5,50.2,111,50.2,111s-66.5-5.7-111-50.2-50.2-111-50.2-111S209,133.8,253.5,178.3Z" transform="translate(-70.18 -60.52)" style="fill:#da7d81;stroke:#f2f2f2;stroke-miterlimit:10;opacity:0.6000000238418579;isolation:isolate"/><path d="M214.8,206c58.2,24.1,88.9,83.3,88.9,83.3s-63.6,20.2-121.8-3.9S93,202.1,93,202.1,156.7,181.9,214.8,206Z" transform="translate(-70.18 -60.52)" style="fill:#e6a9ab;stroke:#f2f2f2;stroke-miterlimit:10;opacity:0.6000000238418579;isolation:isolate"/><path d="M189.7,246.4c63,0,114,43,114,43s-51,43-114,43-114-43-114-43S126.8,246.4,189.7,246.4Z" transform="translate(-70.18 -60.52)" style="fill:#f15a24;stroke:#f2f2f2;stroke-miterlimit:10;opacity:0.6000000238418579;isolation:isolate"/><path d="M182,293.3c58.2-24.1,121.8-3.9,121.8-3.9s-30.7,59.2-88.9,83.3-121.8,3.9-121.8,3.9S123.8,317.4,182,293.3Z" transform="translate(-70.18 -60.52)" style="fill:#f47b50;stroke:#f2f2f2;stroke-miterlimit:10;opacity:0.6000000238418579;isolation:isolate"/><path d="M192.7,339.6c44.5-44.5,111-50.2,111-50.2s-5.7,66.5-50.2,111-111,50.2-111,50.2S148.2,384.1,192.7,339.6Z" transform="translate(-70.18 -60.52)" style="fill:#f79c7c;stroke:#f2f2f2;stroke-miterlimit:10;opacity:0.6000000238418579;isolation:isolate"/><path d="M220.4,378.2c24.1-58.2,83.3-88.9,83.3-88.9s20.2,63.6-3.9,121.8S216.5,500,216.5,500,196.3,436.4,220.4,378.2Z" transform="translate(-70.18 -60.52)" style="fill:#f9bda7;stroke:#f2f2f2;stroke-miterlimit:10;opacity:0.6000000238418579;isolation:isolate"/><path d="M260.8,403.3c0-63,43-114,43-114s43,51,43,114-43,114-43,114S260.8,466.3,260.8,403.3Z" transform="translate(-70.18 -60.52)" style="fill:#f7931e;stroke:#f2f2f2;stroke-miterlimit:10;opacity:0.6000000238418579;isolation:isolate"/><path d="M307.7,411.1c-24.1-58.2-3.9-121.8-3.9-121.8S363,320,387.1,378.2,391,500,391,500,331.7,469.3,307.7,411.1Z" transform="translate(-70.18 -60.52)" style="fill:#f9a94b;stroke:#f2f2f2;stroke-miterlimit:10;opacity:0.6000000238418579;isolation:isolate"/><path d="M354,400.3c-44.5-44.5-50.2-111-50.2-111s66.5,5.7,111,50.2,50.2,111,50.2,111S398.5,444.9,354,400.3Z" transform="translate(-70.18 -60.52)" style="fill:#fabe78;stroke:#f2f2f2;stroke-miterlimit:10;opacity:0.6000000238418579;isolation:isolate"/><path d="M392.6,372.7c-58.2-24.1-88.9-83.3-88.9-83.3s63.6-20.2,121.8,3.9,88.9,83.3,88.9,83.3S450.8,396.8,392.6,372.7Z" transform="translate(-70.18 -60.52)" style="fill:#fcd4a5;stroke:#f2f2f2;stroke-miterlimit:10;opacity:0.6000000238418579;isolation:isolate"/><path d="M417.7,332.3c-63,0-114-43-114-43s51-43,114-43,114,43,114,43S480.7,332.3,417.7,332.3Z" transform="translate(-70.18 -60.52)" style="fill:#fbb03b;stroke:#f2f2f2;stroke-miterlimit:10;opacity:0.6000000238418579;isolation:isolate"/><path d="M425.5,285.4c-58.2,24.1-121.8,3.9-121.8,3.9s30.7-59.2,88.9-83.3,121.8-3.9,121.8-3.9S483.7,261.3,425.5,285.4Z" transform="translate(-70.18 -60.52)" style="fill:#fcc062;stroke:#f2f2f2;stroke-miterlimit:10;opacity:0.6000000238418579;isolation:isolate"/><path d="M414.7,239.1c-44.5,44.5-111,50.2-111,50.2s5.7-66.5,50.2-111,111-50.2,111-50.2S459.3,194.6,414.7,239.1Z" transform="translate(-70.18 -60.52)" style="fill:#fdd089;stroke:#f2f2f2;stroke-miterlimit:10;opacity:0.6000000238418579;isolation:isolate"/><path d="M387.1,200.4c-24.1,58.2-83.3,88.9-83.3,88.9s-20.2-63.6,3.9-121.8S391,78.6,391,78.6,411.2,142.3,387.1,200.4Z" transform="translate(-70.18 -60.52)" style="fill:#fddfb1;stroke:#f2f2f2;stroke-miterlimit:10;opacity:0.6000000238418579;isolation:isolate"/><path d="M331.7,215.2c0,40.9-27.9,74.1-27.9,74.1s-27.9-33.2-27.9-74.1,27.9-74.1,27.9-74.1S331.7,174.3,331.7,215.2Z" transform="translate(-70.18 -60.52)" style="fill:#c1272d;opacity:0.6000000238418579;isolation:isolate"/><path d="M301.2,210.2c15.7,37.8,2.6,79.2,2.6,79.2s-38.5-20-54.2-57.8-2.6-79.2-2.6-79.2S285.5,172.4,301.2,210.2Z" transform="translate(-70.18 -60.52)" style="fill:#cd5257;opacity:0.6000000238418579;isolation:isolate"/><path d="M271.1,217.2c28.9,28.9,32.6,72.2,32.6,72.2s-43.2-3.7-72.2-32.6-32.6-72.2-32.6-72.2S242.1,188.2,271.1,217.2Z" transform="translate(-70.18 -60.52)" style="fill:#da7d81;opacity:0.6000000238418579;isolation:isolate"/><path d="M246,235.2c37.8,15.7,57.8,54.2,57.8,54.2s-41.3,13.1-79.2-2.6-57.8-54.2-57.8-54.2S208.1,219.5,246,235.2Z" transform="translate(-70.18 -60.52)" style="fill:#e6a9ab;opacity:0.6000000238418579;isolation:isolate"/><path d="M229.6,261.4c40.9,0,74.1,27.9,74.1,27.9s-33.2,27.9-74.1,27.9-74.1-27.9-74.1-27.9S188.7,261.4,229.6,261.4Z" transform="translate(-70.18 -60.52)" style="fill:#f15a24;opacity:0.6000000238418579;isolation:isolate"/><path d="M224.6,291.9c37.8-15.7,79.2-2.6,79.2-2.6s-20,38.5-57.8,54.2-79.2,2.6-79.2,2.6S186.8,307.5,224.6,291.9Z" transform="translate(-70.18 -60.52)" style="fill:#f47b50;opacity:0.6000000238418579;isolation:isolate"/><path d="M231.6,322c28.9-28.9,72.2-32.6,72.2-32.6s-3.7,43.2-32.6,72.2S199,394.2,199,394.2,202.6,350.9,231.6,322Z" transform="translate(-70.18 -60.52)" style="fill:#f79c7c;opacity:0.6000000238418579;isolation:isolate"/><path d="M249.6,347.1c15.7-37.8,54.2-57.8,54.2-57.8s13.1,41.3-2.6,79.2S247,426.3,247,426.3,233.9,384.9,249.6,347.1Z" transform="translate(-70.18 -60.52)" style="fill:#f9bda7;opacity:0.6000000238418579;isolation:isolate"/><path d="M275.8,363.4c0-40.9,27.9-74.1,27.9-74.1s27.9,33.2,27.9,74.1-27.9,74.1-27.9,74.1S275.8,404.4,275.8,363.4Z" transform="translate(-70.18 -60.52)" style="fill:#f7931e;opacity:0.6000000238418579;isolation:isolate"/><path d="M306.3,368.5c-15.7-37.8-2.6-79.2-2.6-79.2s38.5,20,54.2,57.8,2.6,79.2,2.6,79.2S321.9,406.3,306.3,368.5Z" transform="translate(-70.18 -60.52)" style="fill:#f9a94b;opacity:0.6000000238418579;isolation:isolate"/><path d="M336.4,361.5c-28.9-28.9-32.6-72.2-32.6-72.2S347,293,376,321.9s32.6,72.2,32.6,72.2S365.3,390.4,336.4,361.5Z" transform="translate(-70.18 -60.52)" style="fill:#fabe78;opacity:0.6000000238418579;isolation:isolate"/><path d="M361.5,343.5c-37.8-15.7-57.8-54.2-57.8-54.2s41.3-13.1,79.2,2.6,57.8,54.2,57.8,54.2S399.3,359.2,361.5,343.5Z" transform="translate(-70.18 -60.52)" style="fill:#fcd4a5;opacity:0.6000000238418579;isolation:isolate"/><path d="M377.8,317.3c-40.9,0-74.1-27.9-74.1-27.9s33.2-27.9,74.1-27.9,74.1,27.9,74.1,27.9S418.8,317.3,377.8,317.3Z" transform="translate(-70.18 -60.52)" style="fill:#fbb03b;opacity:0.6000000238418579;isolation:isolate"/><path d="M382.9,286.8c-37.8,15.7-79.2,2.6-79.2,2.6s20-38.5,57.8-54.2,79.2-2.6,79.2-2.6S420.7,271.1,382.9,286.8Z" transform="translate(-70.18 -60.52)" style="fill:#fcc062;opacity:0.6000000238418579;isolation:isolate"/><path d="M375.9,256.7c-28.9,28.9-72.2,32.6-72.2,32.6s3.7-43.2,32.6-72.2,72.2-32.6,72.2-32.6S404.8,227.7,375.9,256.7Z" transform="translate(-70.18 -60.52)" style="fill:#fdd089;opacity:0.6000000238418579;isolation:isolate"/><path d="M357.9,231.6c-15.7,37.8-54.2,57.8-54.2,57.8s-13.1-41.3,2.6-79.2,54.2-57.8,54.2-57.8S373.6,193.7,357.9,231.6Z" transform="translate(-70.18 -60.52)" style="fill:#fddfb1;opacity:0.6000000238418579;isolation:isolate"/><path d="M167.8,241.8A93.54,93.54,0,0,1,155.6,219a73.69,73.69,0,0,1-4.5-24.9,56.44,56.44,0,0,1,2.3-16.1,49.19,49.19,0,0,1-8.1-22,27,27,0,0,0-.4-2.8c-1-2.3-2.1-4.7-3-7.1a132.48,132.48,0,0,0-18.5,14.1,94.43,94.43,0,0,0-19.5,24.6,59,59,0,0,0-7.4,28.7,43,43,0,0,0,3.2,16.8,38.5,38.5,0,0,0,8.8,12.7,38.09,38.09,0,0,0,13.2,7.9,49.07,49.07,0,0,0,16.4,2.7,65.94,65.94,0,0,0,26.1-5.6,26.92,26.92,0,0,0,3.2-1.3l2.5-1.4Z" transform="translate(-70.18 -60.52)" style="fill:#331749;stroke:#331749;stroke-miterlimit:10"/><path d="M527.5,401c-3.4-2.9-10.6-.2-17.7,6h0l-.1.1a49.91,49.91,0,0,0-4.6,4.6q-19.2,18.9-38.1,29.2a36.2,36.2,0,0,1,6.9,13.7,4.56,4.56,0,0,1-1.3,4.7,23.94,23.94,0,0,1,1.3,2.8c1.9,4.7-5.1,8.3-8.4,4.9-5.7-6.1-12.2-11.3-17.7-17.5a109.41,109.41,0,0,1-10.7,3.3h0l-.1.1a100.11,100.11,0,0,1-24.7,3.1,87.82,87.82,0,0,1-43-10.9,100.66,100.66,0,0,1-22.5-16.6,117.77,117.77,0,0,1-12.2-13.9c-9.8-13-17.6-28.7-23.2-47q-8.1-26.55-8.4-58.3c15.3-1.3,30.1-3,44.3-5,15.4-2.1,30.2-4.7,44.4-7.6q41.1-8.4,71.4-22.2c20.2-9.2,36.1-19.5,47.6-32.6s17.2-36.2,17.2-53.8q0-18.15-7.8-32.4a72.55,72.55,0,0,0-13.4-17.6,4.49,4.49,0,0,1-1.1,1.3,144.26,144.26,0,0,1-34.9,21.8c-4.6,4.9-9.1,10.1-13.7,15.2a.1.1,0,0,0,.1.1,60.51,60.51,0,0,1,4,22.3,51,51,0,0,1-10.6,31.8c-7.1,9.2-17.3,17.2-30.7,23.8s-29.8,12.1-49.2,16.3c-6.8,1.5-14,2.8-21.4,4-13.8,2.2-28.6,3.8-44.6,5a263.29,263.29,0,0,1,5.2-31.4,227.27,227.27,0,0,1,9.5-31.4A179.84,179.84,0,0,1,333.4,188a113.08,113.08,0,0,1,12.1-16.5,99.65,99.65,0,0,1,7.1-7.4,87.51,87.51,0,0,1,24.6-16.2,74.76,74.76,0,0,1,18.7-5.2c2.1-.2,2.1-.2,3.8-.4,6-.8,11.8-4.3,17.4-6.3a4.32,4.32,0,0,1,2-6,122.51,122.51,0,0,1,38-11.9,1.42,1.42,0,0,1,.6-.2c2.2-.8,4.4-1.6,6.6-2.3a128.46,128.46,0,0,0-31.9-3.9,157.9,157.9,0,0,0-54.3,9.1,175.77,175.77,0,0,0-45.8,24.6c-1.1-1.5-2.3-2.9-3.5-4.3-8-9.2-18.4-16.2-31.3-21.1s-28.3-7.2-46.4-7.2a177.59,177.59,0,0,0-31.9,3.2,239,239,0,0,0-34.3,9.3c-4.5,1.6-9,3.4-13.5,5.3,2.3.6,4.5,1.2,6.7,2a286.47,286.47,0,0,1,29.5,11.6c3.2-.2,6.5-.4,10.1-.4a87.51,87.51,0,0,1,27.4,4.6,70.91,70.91,0,0,1,24.5,14.2,72.35,72.35,0,0,1,17.6,24.5,34.54,34.54,0,0,1,1.4,3.4c3.5,9.2,5.3,19.9,5.3,32s-.4,23.5-1.2,33.6-1.8,12.2-3,23c-14.6,0-28.9.7-43,2.1-4.1.4-8.2.9-12.3,1.4A336.16,336.16,0,0,0,183,293.2,251.11,251.11,0,0,0,138,311a143.14,143.14,0,0,0-35.6,25.5c-9.9,9.8-18,20.8-23.3,33.3-5.7,13.5-8.7,37.7-8.4,49.9.3,11.7,1.9,22.5,5.8,32.5A74.89,74.89,0,0,0,118,495a83.8,83.8,0,0,0,32.6,6.2,87.3,87.3,0,0,0,41.5-10.5,162.07,162.07,0,0,0,37.2-27.4,243.23,243.23,0,0,0,32-38.5c.2-.3.3-.5.5-.8a153.23,153.23,0,0,0,19.7,29.7c9.1,10.8,16.7,19.5,27.8,27.9,6.3,4.8,10.8,7.3,20.2,10.6a149.91,149.91,0,0,0,28.3,6.7c8.2,1,16.6,2.3,25.4,2.3a144.91,144.91,0,0,0,25.2-2.3c3.9-.7,7.8-1.5,11.7-2.5a154.31,154.31,0,0,0,36.7-14.8,185.5,185.5,0,0,0,34.7-24.9,215.21,215.21,0,0,0,29.6-32.9C528.6,414.5,531.5,404.4,527.5,401ZM280,345.1a201.34,201.34,0,0,1-14.6,33.2,186.51,186.51,0,0,1-13.8,21.4c-1.9,2.6-3.9,5.2-6,7.7a155.28,155.28,0,0,1-23,22.9,107.93,107.93,0,0,1-24.4,15,60.2,60.2,0,0,1-24,5.4,39,39,0,0,1-14.7-2.6c-2.3,1.1-4.5,2.1-6.8,3a38.65,38.65,0,0,0-4.3,2.7c-4.5,3.3-8.3,7.5-14,8.5-2.5.5-5.5-.7-6.2-3.5-2.1-9.8,5-20.6,13.4-27.7a51.38,51.38,0,0,1-4.2-11.6,80.39,80.39,0,0,1-2.2-19.3c0-11.9,2-22.3,5.9-31.4a72.12,72.12,0,0,1,16.4-23.5,94.4,94.4,0,0,1,24.9-16.7,170.53,170.53,0,0,1,31.4-10.9,241.3,241.3,0,0,1,29.5-5.3c2.1-.3,4.2-.5,6.3-.7,12.6-1.3,25.2-2.1,38-2.4A160.75,160.75,0,0,1,280,345.1Z" transform="translate(-70.18 -60.52)" style="fill:#331749;stroke:#331749;stroke-miterlimit:10"/></svg>