<svg xmlns="http://www.w3.org/2000/svg" width="127.28" height="195.16" viewBox="0 0 127.28 195.16"><defs><style>.cls-1{fill:#331749}.cls-2{fill:#fff}</style></defs><title>artbrush</title><g id="Layer_2" data-name="Layer 2"><g id="graph"><path class="cls-1" d="M86.65 50.62c3.38-3.16 5.63.19 4 4.52-12.42 33-42.55 106.3-78.51 138.12-5.67 5-13.66-.59-11.9-8C11 140.41 60.89 74.72 86.65 50.62z"/><path class="cls-1" d="M112.84 38.87c-2.79 23-17.53 25.7-25.66 20.17-11.44-7.77-17.79-20.16 2.3-41.58C103 3.09 127.28 0 127.28 0s-11.33 13.21-14.44 38.87z"/><path class="cls-2" transform="rotate(26.93 82.522 57.676)" d="M56.17 55.2h52.67v4.96H56.17z"/></g></g></svg>